<svg xmlns="http://www.w3.org/2000/svg" fill-rule="evenodd" stroke-linejoin="round" stroke-miterlimit="1.414" clip-rule="evenodd" width="64" height="64" viewBox="0 0 438 329"><path fill="none" d="M.473.473h436.805v328.126H.473z"/><path fill="#cce6ff" fill-opacity=".259" d="M427.767 48.599c0-8.279-6.721-15-15-15h-371c-8.279 0-15 6.721-15 15v236c0 8.278 6.721 15 15 15h371c8.279 0 15-6.722 15-15v-236Z"/><path fill="url(#a)" d="M415.767 33.599c0-8.279-6.721-15-15-15h-371c-8.279 0-15 6.721-15 15v236c0 8.278 6.721 15 15 15h371c8.279 0 15-6.722 15-15v-236Z"/><path fill="url(#b)" d="M393.767 66.599h-358v189c0 6.071 4.929 11 11 11h339c4.415 0 8-3.585 8-8v-192Z"/><clipPath id="a"><path d="M393.767 66.599h-358v189c0 6.071 4.929 11 11 11h339c4.415 0 8-3.585 8-8v-192Z"/></clipPath><g fill="#e5f1ff" clip-path="url(#a)"><path d="M52.767 79.599h321v47h-321zM55.767 136.599h103v64h-103zM55.767 210.599h216v47h-216zM284.767 210.599h88v47h-88zM172.767 136.599h89v14h-89zM170.767 160.599h202v15h-202zM170.767 185.599h202v15h-202z"/></g><circle cx="66.767" cy="41.599" r="8" fill="#0084ff"/><circle cx="43.767" cy="41.599" r="8" fill="#55d7ff"/><circle cx="89.767" cy="41.599" r="8" fill="#0bbc00"/><path fill="#e5f1ff" d="M330.767 41.599c0-4.416-3.585-8-8-8h-145c-4.415 0-8 3.584-8 8 0 4.415 3.585 8 8 8h145c4.415 0 8-3.585 8-8ZM393.767 41.599c0-4.416-3.585-8-8-8h-9c-4.415 0-8 3.584-8 8 0 4.415 3.585 8 8 8h9c4.415 0 8-3.585 8-8ZM362.767 41.599c0-4.416-3.585-8-8-8h-9c-4.415 0-8 3.584-8 8 0 4.415 3.585 8 8 8h9c4.415 0 8-3.585 8-8Z"/><path fill="url(#d)" d="m341.228 250.064.105.203c5.812-11.735 16.542-20.933 35.095-20.933 27.942 0 39.343 21.092 39.343 40.756 0 19.506-11.401 40.756-39.343 40.756-18.553 0-29.283-9.356-35.095-21.091-6.259 12.686-20.78 19.836-38.075 19.836-26.478 0-39.503-19.105-39.503-40 0-20.896 12.812-40.001 39.503-40.001 15.125 0 28.129 6.112 35.346 16.138-3.448 6.971-8.836 15.254-13.129 21.485-2.064-6.553-7.796-16.13-18.374-16.13-10.463 0-17.296 8.06-17.296 18.508 0 10.149 6.833 18.507 17.296 18.507 8.832 0 14.285-6.758 17.04-12.753 6.409-8.461 13.92-20.226 17.087-25.281Zm30.283 37.788c-11.177 0-16.319-11.26-17.66-17.762 1.341-6.502 6.483-17.92 17.66-17.92 10.729 0 16.988 7.454 16.988 17.92 0 10.308-6.259 17.762-16.988 17.762Z"/><path fill="#fff" d="m376.809 220.076.38.003.378.005.381.008.377.011.372.012.375.014.374.017.368.019.372.021.371.024.366.026.368.028.364.03.363.032.366.035.361.037.356.038.359.041.361.044.357.045.352.048.355.05.354.052.348.054.352.056.347.059.346.06.348.063.347.065.342.068.339.068.341.071.341.074.339.076.334.077.335.08.336.083.334.084.327.085.329.088.33.091.328.093.326.094.323.096.322.099.321.1.32.103.319.105.32.107.313.108.311.11.317.114.313.115.306.116.308.118.306.12.306.123.303.124.302.126.304.13.299.131.298.132.295.134.292.134.294.138.294.142.288.14.287.143.289.146.286.148.281.147.283.151.28.153.279.154.278.156.272.156.277.161.273.162.272.163.269.165.264.164.268.169.264.17.262.171.261.172.258.174.258.177.256.177.256.181.251.18.25.182.25.185.247.185.246.187.243.188.242.189.241.192.239.193.238.195.232.192.237.2.233.2.227.197.23.203.226.201.225.204.223.205.222.207.22.207.218.21.217.211.213.21.214.213.212.216.209.214.207.216.205.216.206.221.2.217.199.219.204.227.195.221.196.225.194.226.189.222.194.232.19.229.184.226.184.23.184.231.184.235.179.233.177.232.179.239.173.233.172.235.173.239.171.241.169.241.166.239.162.238.165.244.161.244.158.24.158.244.159.249.155.247.152.245.15.245.151.25.149.251.146.249.144.249.142.248.141.251.142.255.14.256.136.252.134.252.133.255.132.255.132.259.127.253.127.256.127.262.122.254.123.258.122.263.118.258.117.258.116.261.116.263.114.265.111.261.108.258.108.262.108.265.107.268.103.264.101.26.101.266.1.266.098.266.096.267.095.266.094.268.092.268.089.264.089.268.087.268.087.271.085.269.082.266.082.271.081.271.078.27.077.267.075.268.076.276.073.272.071.269.07.269.069.273.068.273.065.27.066.274.062.269.061.27.061.275.06.275.058.275.056.271.055.272.054.276.051.271.051.271.05.277.048.272.048.277.044.272.045.273.043.277.041.273.04.272.039.273.038.278.036.273.035.273.033.274.032.273.032.278.029.274.029.273.027.274.026.274.024.274.023.274.023.278.02.27.019.273.019.279.016.269.016.274.015.279.013.274.011.269.011.274.009.273.008.274.007.274.006.274.004.274.003.268.002.274.001.273-.001.272-.002.272-.003.267-.004.273-.006.272-.007.272-.008.273-.009.272-.011.273-.012.268-.012.272-.015.277-.016.273-.016.268-.019.278-.02.272-.02.268-.022.277-.023.273-.025.273-.026.273-.027.272-.028.272-.03.273-.031.277-.033.272-.033.272-.035.272-.036.273-.038.277-.039.272-.04.271-.041.273-.043.276-.044.271-.046.272-.047.275-.048.271-.05.276-.051.271-.051.27-.055.276-.054.27-.056.27-.058.274-.06.274-.061.274-.061.271-.063.269-.065.273-.065.268-.068.273-.069.272-.07.268-.071.268-.073.272-.076.275-.076.268-.076.267-.079.269-.08.271-.082.27-.083.265-.084.269-.087.269-.087.268-.089.268-.09.264-.092.269-.093.266-.095.266-.096.266-.099.267-.099.264-.101.265-.1.261-.104.264-.107.267-.107.263-.109.264-.108.258-.111.261-.114.264-.114.26-.116.261-.118.26-.118.258-.122.263-.123.258-.122.254-.126.26-.126.255-.128.255-.133.26-.131.254-.132.253-.135.255-.136.251-.14.256-.141.254-.14.249-.143.252-.143.247-.146.249-.149.251-.15.248-.151.248-.152.245-.156.248-.158.248-.156.242-.158.242-.162.243-.164.245-.163.238-.165.24-.169.241-.17.239-.174.241-.172.236-.171.232-.179.239-.178.234-.178.231-.184.236-.185.234-.183.227-.184.226-.189.231-.194.232-.189.222-.194.227-.196.225-.195.222-.202.225-.198.219-.202.22-.204.219-.205.218-.209.218-.209.215-.212.216-.211.211-.213.211-.217.212-.218.21-.223.21-.221.207-.221.204-.222.202-.228.204-.23.204-.227.197-.233.201-.237.2-.231.193-.238.196-.241.195-.236.188-.242.191-.249.193-.242.185-.247.186-.25.186-.25.182-.251.181-.253.179-.259.181-.258.177-.255.172-.26.173-.265.174-.264.171-.268.17-.267.166-.266.163-.268.163-.277.165-.273.159-.276.159-.277.157-.275.153-.284.154-.283.152-.285.15-.282.147-.285.145-.29.145-.292.143-.291.14-.29.138-.296.137-.298.136-.298.133-.296.129-.3.129-.305.128-.307.127-.302.122-.305.12-.312.121-.307.116-.312.116-.314.114-.315.111-.316.11-.312.105-.32.106-.323.105-.321.101-.319.097-.326.099-.329.095-.325.093-.33.091-.329.088-.328.086-.337.086-.335.083-.333.08-.337.078-.338.076-.339.074-.341.072-.342.07-.346.068-.343.065-.345.063-.349.061-.351.06-.351.057-.349.054-.35.052-.355.05-.356.048-.356.046-.362.044-.359.042-.356.038-.361.037-.366.036-.366.032-.364.03-.365.029-.37.026-.37.023-.369.022-.372.019-.377.017-.371.014-.372.013-.381.01-.381.008-.375.006-.38.003-.38.001h-.262l-.251-.002-.247-.002-.251-.004-.256-.004-.25-.006-.25-.006-.249-.008-.249-.008-.248-.01-.248-.01-.247-.012-.247-.012-.247-.013-.245-.015-.246-.015-.24-.016-.245-.018-.249-.019-.238-.019-.238-.019-.248-.022-.242-.023-.236-.023-.241-.024-.236-.025-.24-.026-.24-.028-.234-.027-.239-.03-.234-.029-.237-.032-.237-.032-.231-.033-.237-.034-.231-.035-.229-.035-.236-.037-.229-.038-.234-.039-.228-.039-.228-.041-.233-.042-.226-.042-.226-.043-.232-.046-.224-.045-.225-.046-.224-.047-.223-.048-.23-.05-.222-.05-.222-.051-.223-.052-.22-.053-.22-.053-.221-.055-.219-.056-.22-.057-.219-.057-.216-.058-.213-.059-.217-.06-.222-.063-.217-.063-.21-.062-.215-.064-.213-.065-.208-.064-.22-.069-.214-.068-.2-.066-.211-.069-.216-.073-.207-.07-.205-.071-.209-.074-.209-.074-.202-.073-.207-.076-.209-.078-.197-.075-.206-.079-.205-.08-.199-.079-.204-.081-.2-.082-.198-.081-.202-.084-.199-.085-.195-.084-.201-.087-.197-.087-.194-.086-.191-.087-.201-.091-.195-.091-.189-.089-.191-.091-.193-.093-.196-.095-.184-.091-.189-.095-.194-.098-.187-.096-.182-.094-.19-.099-.191-.102-.183-.098-.18-.097-.187-.103-.183-.102-.183-.103-.183-.104-.177-.101-.181-.106-.181-.106-.18-.107-.179-.108-.174-.105-.179-.11-.177-.11-.172-.108-.172-.109-.176-.112-.175-.114-.171-.112-.174-.115-.172-.115-.168-.113-.164-.112-.172-.118-.171-.119-.165-.116-.165-.117-.161-.116-.169-.122-.166-.122-.159-.117-.173-.129-.316-.239-.32-.247-.316-.249-.315-.252-.31-.254-.308-.256-.307-.261-.299-.259-.298-.262-.297-.267-.294-.268-.288-.269-.287-.271-.283-.273-.282-.276-.278-.278-.275-.279-.273-.283-.269-.283-.265-.284-.159-.174-.046.043-.159.147-.153.14-.157.143-.161.144-.156.138-.159.14-.16.14-.157.135-.158.135-.166.141-.163.136-.16.132-.164.135-.165.134-.163.131-.162.129-.168.132-.167.132-.169.13-.165.126-.17.129-.171.128-.167.124-.168.125-.173.125-.173.125-.169.121-.175.124-.175.122-.168.117-.173.119-.18.122-.178.12-.175.117-.171.113-.18.117-.179.116-.181.116-.178.113-.174.109-.185.115-.181.11-.175.107-.184.111-.187.112-.18.106-.183.107-.183.106-.185.106-.189.107-.182.102-.184.102-.188.104-.187.101-.182.098-.191.102-.202.106-.368.191-.379.192-.382.19-.382.186-.388.185-.389.181-.388.176-.394.176-.394.171-.391.167-.398.165-.399.162-.4.159-.402.156-.403.152-.406.15-.409.148-.408.142-.408.14-.412.137-.413.135-.416.131-.419.129-.416.125-.417.121-.423.12-.421.115-.424.113-.426.11-.425.107-.426.103-.429.101-.434.099-.432.094-.431.092-.435.088-.436.086-.436.083-.439.079-.439.077-.44.073-.441.071-.443.067-.443.065-.447.062-.446.058-.447.056-.449.052-.452.05-.45.046-.45.044-.454.041-.452.037-.453.034-.46.032-.457.029-.453.025-.459.023-.463.019-.459.017-.461.013-.465.011-.461.007-.464.005-.462.001-.362-.001-.366-.003-.357-.005-.358-.007-.36-.009-.355-.011-.358-.014-.357-.015-.349-.017-.352-.019-.355-.022-.35-.023-.35-.026-.348-.027-.348-.029-.348-.032-.345-.033-.345-.036-.345-.037-.34-.039-.339-.041-.341-.044-.342-.045-.339-.048-.336-.049-.334-.051-.337-.054-.333-.055-.331-.057-.332-.059-.329-.061-.333-.064-.329-.065-.328-.067-.325-.069-.321-.07-.325-.073-.324-.075-.318-.076-.321-.079-.321-.081-.32-.083-.319-.085-.309-.084-.316-.089-.317-.091-.307-.091-.314-.094-.308-.096-.307-.097-.307-.099-.307-.102-.308-.104-.301-.105-.302-.106-.301-.109-.301-.112-.298-.112-.296-.113-.298-.118-.29-.116-.296-.121-.294-.122-.285-.121-.293-.126-.29-.128-.285-.128-.286-.131-.283-.131-.282-.134-.28-.135-.28-.137-.28-.14-.279-.142-.275-.142-.273-.144-.272-.145-.274-.149-.271-.149-.27-.152-.265-.151-.264-.153-.266-.157-.263-.157-.263-.16-.26-.16-.257-.162-.259-.164-.26-.169-.25-.164-.251-.167-.256-.174-.249-.17-.246-.172-.247-.175-.245-.176-.247-.179-.242-.18-.24-.179-.24-.183-.236-.182-.237-.185-.239-.19-.231-.187-.231-.188-.231-.192-.228-.191-.227-.193-.227-.196-.223-.196-.222-.197-.223-.2-.22-.201-.215-.199-.216-.203-.215-.204-.214-.206-.209-.204-.211-.208-.211-.213-.207-.211-.204-.21-.203-.211-.2-.213-.202-.217-.2-.218-.197-.216-.195-.218-.193-.219-.195-.223-.19-.222-.189-.223-.187-.224-.189-.228-.182-.224-.179-.223-.184-.231-.182-.233-.176-.228-.176-.23-.175-.234-.174-.235-.171-.233-.169-.235-.172-.241-.166-.236-.163-.236-.163-.238-.163-.242-.162-.244-.157-.239-.155-.24-.159-.249-.155-.246-.149-.24-.15-.247-.15-.247-.149-.25-.145-.247-.144-.25-.146-.255-.14-.25-.137-.248-.138-.251-.138-.257-.135-.255-.135-.258-.13-.254-.128-.252-.131-.262-.126-.256-.126-.258-.123-.26-.122-.258-.122-.264-.117-.256-.118-.262-.118-.267-.114-.262-.114-.267-.111-.265-.108-.26-.108-.265-.109-.271-.104-.264-.103-.267-.103-.269-.1-.268-.1-.271-.096-.265-.096-.27-.095-.274-.093-.271-.091-.271-.09-.273-.088-.273-.088-.276-.085-.272-.082-.269-.084-.278-.08-.276-.078-.271-.079-.28-.077-.279-.073-.272-.074-.278-.073-.281-.069-.274-.068-.277-.069-.283-.065-.279-.064-.278-.063-.28-.061-.28-.06-.281-.059-.285-.057-.28-.055-.278-.054-.285-.053-.282-.05-.279-.05-.287-.048-.282-.047-.284-.045-.283-.044-.284-.042-.289-.04-.28-.04-.284-.038-.289-.036-.286-.035-.281-.034-.286-.032-.29-.031-.286-.029-.286-.028-.287-.026-.287-.025-.287-.023-.287-.023-.292-.02-.288-.019-.284-.018-.287-.016-.289-.015-.292-.014-.289-.011-.285-.011-.293-.009-.289-.008-.284-.007-.294-.004-.289-.004-.29-.002-.289-.001-.29.001-.29.002-.285.003-.294.005-.29.006-.284.008-.289.009-.289.011-.289.011-.289.014-.288.014-.288.016-.289.018-.288.019-.288.02-.283.021-.287.024-.293.024-.282.026-.286.028-.292.028-.282.03-.286.032-.286.033-.286.034-.285.036-.28.037-.29.039-.285.04-.284.042-.284.042-.28.046-.289.046-.282.046-.279.05-.287.05-.281.051-.279.054-.286.055-.28.055-.278.058-.285.06-.28.059-.276.063-.283.063-.28.064-.274.067-.282.068-.279.069-.274.072-.282.072-.275.073-.277.076-.277.077-.275.078-.274.08-.275.082-.28.082-.268.084-.273.087-.278.086-.268.089-.271.091-.275.092-.271.093-.271.095-.27.097-.269.098-.269.099-.268.101-.266.102-.267.104-.268.107-.269.108-.265.106-.26.112-.268.112-.264.114-.264.116-.265.114-.257.118-.262.122-.264.121-.26.122-.258.124-.257.126-.259.128-.257.129-.258.132-.258.132-.254.133-.252.136-.255.138-.255.136-.248.141-.252.143-.253.145-.252.145-.249.144-.243.148-.248.152-.25.152-.247.151-.242.153-.241.159-.247.159-.244.159-.241.159-.237.165-.242.165-.24.165-.237.168-.236.168-.234.171-.236.172-.233.177-.237.176-.232.174-.226.179-.231.183-.232.183-.228.183-.226.186-.226.185-.222.188-.223.192-.224.194-.224.19-.216.194-.218.201-.222.197-.216.197-.212.204-.218.207-.216.201-.208.204-.209.211-.212.21-.209.212-.207.21-.203.215-.205.218-.205.217-.202.221-.202.218-.196.222-.198.228-.2.224-.194.224-.19.227-.192.234-.194.235-.192.232-.187.233-.185.234-.184.241-.186.24-.183.238-.179.243-.179.246-.18.249-.179.243-.172.248-.173.253-.174.251-.169.249-.167.258-.17.258-.166.256-.163.257-.162.261-.161.266-.161.261-.157.266-.156.268-.155.267-.152.268-.151.268-.148.272-.148.279-.149.272-.142.275-.143.281-.142.275-.137.284-.139.282-.136.282-.134.284-.131.286-.131.291-.13.286-.126.288-.124.294-.125.292-.121.292-.119.296-.118.298-.117.3-.115.296-.111.301-.111.302-.109.301-.106.308-.106.306-.103.306-.102.307-.099.306-.096.313-.097.314-.094.313-.092.313-.09.313-.087.318-.087.321-.085.317-.082.318-.08.322-.079.323-.076.325-.075.326-.073.322-.07.328-.069.332-.068.329-.065.327-.062.332-.061.336-.06.332-.057.334-.055.34-.054.339-.051.336-.049.338-.047.339-.045.343-.044.344-.041.342-.039.349-.038.347-.035.344-.033.349-.031.349-.03.351-.027.351-.025.352-.024.353-.021.353-.019.359-.018.355-.015.357-.013.361-.011.361-.009.363-.007.36-.005.36-.003.367-.002.412.002.409.004.412.006.412.009.408.012.41.014.41.017.406.019.409.022.405.025.404.027.403.03.403.032.406.035.401.037.401.04.4.043.397.044.398.048.402.05.394.053.393.054.396.058.395.06.394.063.39.065.392.067.389.07.387.073.39.075.386.078.386.08.383.082.383.085.383.087.381.09.38.092.381.095.375.097.377.099.379.104.373.104.371.106.373.11.37.111.371.115.371.118.366.118.365.122.364.124.362.125.361.129.362.131.362.135.357.136.355.137.356.141.354.144.352.145.351.148.351.15.348.153.345.154.347.158.344.16.342.162.34.164.34.167.338.169.337.173.335.174.333.176.332.179.327.179.329.183.329.187.324.188.324.19.321.193.319.194.32.198.314.198.317.203.316.206.309.205.309.208.308.211.305.213.303.215.303.218.302.221.299.223.295.224.293.226.295.231.292.232.287.232.285.235.287.239.283.241.278.241.281.247.277.247.274.249.221.205 1.539-2.454.689 1.325.095-.092.284-.272.289-.271.289-.267.292-.264.298-.265.3-.263.302-.258.305-.257.309-.255.312-.253.314-.249.315-.246.323-.247.317-.238.168-.124.164-.12.167-.12.164-.118.165-.118.166-.116.165-.115.167-.115.171-.117.17-.114.168-.112.176-.117.175-.114.166-.108.171-.109.176-.112.177-.111.172-.106.173-.107.178-.108.184-.111.175-.103.175-.103.186-.108.182-.104.177-.101.177-.1.184-.102.188-.104.188-.101.18-.097.183-.097.186-.097.189-.098.188-.096.187-.095.189-.095.189-.093.195-.095.185-.089.193-.092.197-.092.189-.088.195-.09.19-.086.197-.088.2-.087.191-.084.201-.086.196-.083.198-.083.203-.084.197-.08.2-.08.205-.081.204-.08.194-.074.206-.078.208-.078.204-.075.201-.073.208-.075.209-.073.203-.07.206-.071.212-.071.21-.07.206-.067.212-.068.213-.067.215-.066.207-.064.214-.064.214-.063.211-.061.217-.062.216-.06.217-.06.219-.059.216-.057.219-.057.214-.054.219-.055.227-.056.214-.051.22-.052.229-.053.222-.05.216-.048.225-.048.228-.049.224-.046.225-.045.224-.045.226-.043.227-.043.231-.043.227-.04.228-.04.234-.04.228-.037.229-.037.23-.036.23-.035.236-.035.237-.034.231-.032.232-.031.237-.031.239-.029.234-.029.233-.027.24-.027.235-.025.241-.025.241-.024.236-.023.242-.022.238-.02.243-.021.243-.019.244-.018.244-.017.24-.016.241-.014.251-.015.246-.013.242-.012.247-.011.248-.011.248-.009.249-.008.249-.008.25-.006.25-.005.251-.005.251-.003.247-.003.257-.001.261-.001.372.002Zm-.598 9.259-.216.001-.216.002-.215.003-.214.004-.213.004-.213.006-.212.006-.212.007-.21.008-.21.009-.21.009-.208.011-.208.011-.207.012-.207.013-.205.013-.205.014-.205.016-.203.016-.203.016-.203.018-.201.018-.201.019-.2.02-.2.021-.198.021-.199.023-.197.023-.197.024-.196.024-.195.026-.195.026-.194.026-.193.028-.193.029-.192.029-.191.03-.191.03-.19.032-.189.032-.189.033-.187.033-.188.035-.186.035-.186.036-.185.036-.185.038-.184.038-.183.038-.183.04-.182.04-.181.041-.18.042-.18.042-.18.043-.178.044-.178.044-.178.045-.176.046-.176.047-.176.047-.174.048-.174.049-.174.049-.172.05-.172.051-.172.051-.171.053-.17.052-.169.054-.169.054-.168.055-.168.055-.167.056-.166.057-.166.057-.165.059-.164.058-.164.06-.163.06-.163.061-.162.061-.161.062-.16.063-.16.063-.16.064-.159.064-.158.066-.157.065-.157.067-.156.067-.156.068-.155.068-.154.069-.154.069-.153.071-.153.07-.151.072-.152.072-.15.072-.151.074-.149.073-.149.075-.148.075-.148.075-.147.077-.146.076-.146.078-.145.078-.145.078-.144.079-.143.08-.143.08-.142.081-.142.081-.141.082-.14.083-.14.083-.14.083-.138.085-.138.084-.138.086-.137.085-.136.087-.136.087-.135.087-.134.088-.134.089-.134.089-.132.089-.133.091-.131.09-.131.091-.131.092-.13.092-.129.093-.129.093-.128.094-.128.094-.253.191-.251.192-.249.194-.247.196-.245.198-.242.2-.24.202-.238.204-.235.205-.233.208-.232.209-.229.212-.226.213-.225.214-.222.217-.221.218-.218.22-.216.222-.213.224-.212.225-.21.227-.207.228-.206.23-.203.232-.201.233-.199.235-.197.236-.195.238-.193.239-.191.241-.189.242-.187.244-.185.245-.183.247-.181.248-.178.249-.177.251-.175.252-.173.253-.171.255-.169.256-.167.257-.165.258-.163.26-.162.26-.159.262-.158.263-.155.265-.154.265-.152.266-.15.268-.148.269-.146.269-.144.271-.143.272-.141.272-.139.274-.137.274-.105-.203-.31.493-.334.531-.357.566-.38.601-.401.632-.422.662-.441.691-.46.717-.477.742-.494.764-.509.786-.524.805-.537.822-.549.837-.561.851-.572.863-.581.873-.59.881-.597.888-.301.445-.302.447-.304.447-.305.447-.307.448-.307.447-.308.448-.309.447-.31.446-.31.445-.31.444-.311.443-.311.441-.311.439-.31.437-.311.435-.31.432-.31.43-.309.426-.308.424-.307.419-.307.416-.305.413-.304.408-.303.403-.301.399-.065.141-.066.141-.067.141-.068.141-.069.142-.07.141-.071.142-.072.142-.073.142-.074.143-.075.142-.076.142-.077.143-.079.142-.079.142-.08.142-.081.143-.082.142-.083.142-.084.142-.086.141-.086.142-.087.141-.089.141-.089.141-.09.141-.092.14-.092.14-.094.14-.094.139-.096.139-.097.139-.097.138-.099.138-.1.137-.101.137-.102.137-.103.136-.104.135-.105.135-.106.134-.107.133-.109.133-.109.133-.11.131-.112.131-.113.13-.113.13-.115.129-.116.128-.117.127-.118.126-.119.126-.12.124-.122.124-.122.123-.124.122-.124.121-.126.12-.127.119-.128.118-.129.117-.13.116-.131.115-.132.114-.134.112-.134.112-.136.11-.137.109-.138.108-.139.107-.14.106-.142.104-.142.103-.144.101-.144.101-.146.099-.147.097-.148.096-.15.095-.15.093-.152.092-.152.09-.154.089-.155.088-.156.085-.158.084-.158.083-.16.081-.161.079-.162.078-.163.076-.164.074-.165.073-.167.071-.168.069-.169.067-.17.066-.171.063-.173.062-.174.06-.175.058-.176.056-.177.054-.178.052-.18.051-.181.048-.182.046-.183.044-.185.042-.185.04-.187.038-.188.036-.189.034-.191.031-.192.029-.192.027-.195.025-.195.023-.196.02-.198.018-.199.016-.2.013-.202.011-.203.008-.203.006-.206.004-.206.001h-.122l-.122-.001-.122-.002-.122-.003-.121-.003-.121-.004-.12-.005-.12-.006-.12-.006-.119-.007-.119-.008-.119-.009-.118-.009-.118-.011-.118-.01-.117-.012-.117-.012-.117-.013-.116-.014-.116-.015-.116-.015-.115-.016-.115-.016-.114-.018-.114-.018-.114-.018-.114-.02-.113-.02-.112-.021-.113-.021-.112-.023-.111-.023-.111-.023-.111-.025-.221-.05-.219-.054-.217-.056-.216-.059-.215-.061-.213-.064-.211-.067-.21-.069-.209-.072-.206-.075-.206-.077-.203-.079-.202-.082-.201-.085-.198-.087-.198-.09-.195-.092-.194-.094-.192-.097-.191-.099-.189-.102-.187-.104-.186-.106-.183-.108-.183-.111-.18-.113-.179-.116-.177-.117-.175-.12-.174-.122-.171-.124-.17-.127-.168-.128-.167-.131-.164-.133-.163-.134-.161-.137-.159-.139-.158-.141-.155-.143-.154-.145-.152-.147-.15-.149-.148-.151-.146-.152-.144-.155-.142-.156-.141-.159-.138-.16-.137-.162-.134-.164-.133-.165-.131-.168-.129-.169-.126-.171-.125-.172-.123-.174-.121-.176-.118-.178-.117-.179-.115-.181-.112-.182-.111-.184-.108-.186-.107-.187-.104-.188-.103-.19-.1-.192-.098-.193-.096-.194-.094-.196-.091-.198-.09-.198-.087-.2-.085-.202-.083-.203-.081-.204-.079-.205-.076-.207-.075-.208-.072-.209-.07-.21-.067-.212-.066-.212-.063-.214-.061-.215-.058-.216-.056-.218-.054-.218-.052-.219-.049-.221-.047-.221-.045-.223-.043-.224-.04-.224-.037-.225-.036-.227-.033-.227-.03-.228-.028-.229-.026-.23-.023-.231-.021-.232-.019-.232-.016-.233-.014-.234-.011-.235-.008-.236-.007-.236-.003-.237-.002-.237.002-.245.003-.243.007-.243.008-.242.011-.24.014-.24.016-.239.019-.238.021-.237.023-.235.026-.235.028-.234.03-.233.033-.231.036-.231.037-.229.04-.228.043-.227.045-.226.047-.225.049-.224.052-.222.054-.221.056-.22.058-.218.061-.218.063-.216.066-.214.067-.214.07-.212.072-.21.075-.21.076-.208.079-.206.081-.205.083-.204.085-.202.087-.2.09-.2.091-.197.094-.196.096-.195.098-.193.1-.192.103-.189.104-.189.107-.186.108-.185.111-.184.112-.182.115-.18.117-.178.118-.176.121-.175.123-.173.125-.172.126-.169.129-.168.131-.166.133-.164.134-.162.137-.161.138-.158.141-.157.142-.155.144-.152.146-.151.148-.149.15-.147.152-.145.154-.143.155-.141.158-.139.159-.136.161-.135.163-.133.164-.13.167-.128.168-.127.17-.124.171-.122.174-.119.175-.118.177-.115.179-.113.18-.111.183-.108.183-.107.186-.104.187-.101.189-.099.191-.097.192-.095.194-.092.195-.09.198-.087.198-.085.201-.083.202-.08.203-.077.206-.075.206-.073.209-.07.21-.067.211-.065.213-.062.215-.06.216-.057.217-.055.219-.051.221-.05.222-.046.223-.044.225-.041.227-.038.228-.036.229-.033.231-.03.232-.027.234-.025.235-.021.236-.019.238-.016.239-.013.24-.011.242-.007.244-.004.244-.002.124.001.123.001.123.002.122.003.122.004.122.005.121.005.121.007.12.007.119.008.12.009.119.01.118.011.118.011.118.012.117.013.117.014.116.015.116.015.115.017.115.017.114.017.115.019.113.019.113.02.113.021.113.022.111.022.112.024.111.023.111.025.11.026.11.026.109.026.109.028.108.028.108.029.108.03.107.03.107.032.106.031.106.033.106.033.105.034.104.035.104.035.104.036.104.036.103.037.102.038.102.039.102.039.202.08.2.083.199.085.197.088.195.09.194.093.192.095.19.097.189.1.187.102.186.104.183.106.182.108.181.11.179.113.177.114.175.117.174.118.173.121.17.122.169.124.168.126.165.128.165.129.162.131.161.133.16.135.157.136.157.137.154.139.153.141.152.142.15.143.148.145.147.147.145.147.143.149.142.15.141.151.139.152.137.154.136.155.134.155.133.157.131.158.13.158.128.16.127.16.125.161.123.162.122.163.121.164.119.164.117.165.116.165.115.166.113.167.111.167.11.168.109.168.107.169.105.168.104.17.103.169.101.17.1.17.098.17.097.17.095.171.094.17.092.171.091.171.09.17.088.171.086.17.085.17.084.17.082.17.081.17.08.169.078.169.076.169.076.169.073.167.073.168.071.167.069.166.069.166.067.165.065.165.064.164.063.163.061.163.06.161.059.161.057.16.056.159.054.159.053.157.052.156.05.155.049.154.406-.59.411-.601.417-.612.422-.623.425-.632.429-.641.433-.649.435-.657.437-.664.438-.671.439-.676.44-.682.439-.686.438-.691.219-.346.218-.347.218-.348.217-.349.217-.349.216-.35.215-.35.215-.35.213-.35.213-.351.211-.351.211-.351.209-.35.208-.351.206-.35.206-.35.203-.35.203-.349.2-.348.2-.348.197-.348.195-.346.194-.346.192-.344.189-.344.188-.343.185-.341.184-.341.181-.339.178-.337.176-.336.174-.335.171-.333.169-.331.166-.33.163-.328-.171-.234-.172-.233-.174-.231-.177-.23-.178-.228-.181-.227-.183-.226-.184-.224-.187-.223-.189-.221-.191-.219-.193-.218-.194-.217-.197-.215-.199-.214-.201-.212-.202-.21-.205-.209-.207-.208-.208-.205-.21-.205-.213-.202-.214-.202-.216-.199-.218-.198-.22-.197-.221-.194-.224-.194-.225-.191-.227-.19-.229-.188-.231-.187-.232-.185-.234-.184-.236-.181-.238-.181-.24-.178-.241-.177-.243-.175-.244-.173-.247-.172-.248-.17-.25-.169-.251-.166-.253-.165-.255-.164-.256-.161-.258-.16-.26-.158-.261-.156-.263-.155-.264-.153-.266-.151-.268-.149-.269-.148-.27-.145-.272-.144-.274-.143-.275-.14-.277-.138-.278-.137-.28-.135-.281-.133-.282-.132-.284-.129-.286-.128-.287-.125-.288-.124-.29-.122-.291-.12-.292-.119-.294-.116-.295-.115-.297-.112-.298-.111-.299-.109-.301-.107-.302-.105-.303-.103-.304-.101-.306-.099-.307-.098-.308-.095-.31-.093-.311-.092-.312-.089-.313-.088-.314-.085-.316-.084-.317-.081-.318-.08-.319-.077-.32-.076-.322-.073-.322-.072-.324-.069-.325-.067-.326-.066-.327-.063-.328-.061-.329-.059-.33-.057-.332-.056-.332-.052-.333-.051-.335-.049-.335-.047-.337-.044-.337-.043-.338-.04-.34-.038-.34-.036-.341-.034-.342-.032-.343-.03-.344-.027-.345-.026-.346-.023-.347-.021-.347-.018-.348-.017-.35-.014-.35-.013-.351-.01-.351-.007-.353-.006-.353-.003-.354-.002-.313.001-.31.003-.31.004-.308.006-.307.008-.306.01-.305.011-.303.013-.302.015-.301.016-.299.018-.298.02-.297.021-.296.023-.294.025-.294.026-.291.028-.291.03-.289.031-.288.033-.287.035-.286.036-.284.038-.283.039-.282.041-.28.043-.28.044-.278.045-.276.048-.276.049-.274.05-.273.052-.272.054-.27.055-.269.057-.268.058-.267.059-.265.062-.264.062-.263.065-.262.065-.26.068-.259.068-.258.071-.257.071-.255.074-.254.074-.253.076-.252.078-.25.079-.249.08-.248.082-.247.083-.245.085-.244.086-.243.088-.242.089-.24.09-.239.092-.238.093-.237.094-.235.096-.234.097-.233.099-.231.1-.231.101-.229.103-.228.104-.227.105-.225.107-.224.108-.223.109-.222.11-.22.112-.219.113-.218.115-.217.115-.215.117-.214.119-.213.119-.212.121-.211.122-.209.123-.208.125-.207.125-.205.127-.205.128-.203.13-.201.13-.201.132-.199.133-.198.134-.197.135-.196.137-.194.137-.194.139-.192.14-.19.141-.19.143-.188.143-.187.144-.186.146-.184.147-.184.148-.182.149-.181.15-.179.151-.179.152-.177.153-.176.155-.174.155-.174.157-.172.157-.171.159-.17.16-.168.16-.168.162-.166.163-.165.164-.163.165-.163.165-.161.167-.16.168-.159.169-.157.17-.157.17-.155.172-.154.173-.152.173-.152.175-.15.176-.149.176-.148.177-.146.179-.146.179-.144.18-.143.181-.141.182-.141.183-.139.184-.138.184-.137.186-.135.186-.135.188-.133.188-.132.189-.131.189-.129.191-.128.191-.127.193-.126.193-.125.194-.123.195-.123.195-.121.196-.119.198-.119.197-.117.199-.117.2-.115.2-.113.201-.113.201-.111.203-.11.203-.109.204-.108.205-.107.205-.105.206-.104.207-.103.208-.102.208-.1.209-.099.209-.098.211-.097.211-.096.211-.094.212-.094.213-.092.214-.09.214-.09.215-.089.215-.087.217-.086.216-.085.218-.083.218-.083.218-.081.219-.08.22-.079.22-.078.221-.076.221-.075.222-.074.223-.073.223-.072.224-.07.224-.07.224-.068.226-.066.225-.066.227-.065.226-.063.228-.062.227-.061.229-.06.228-.058.229-.058.23-.056.23-.055.231-.053.231-.053.231-.051.232-.051.232-.049.233-.047.233-.047.234-.045.234-.045.234-.043.235-.042.235-.04.236-.04.235-.038.237-.037.236-.036.237-.035.238-.034.237-.032.238-.031.239-.03.238-.029.239-.028.24-.026.239-.026.24-.024.24-.023.241-.021.241-.021.241-.019.241-.019.242-.017.242-.016.242-.014.242-.014.243-.012.242-.011.243-.01.244-.009.243-.008.244-.006.244-.005.244-.005.244-.002.244-.002.245-.001.245.001.245.002.244.003.245.004.244.005.244.007.244.007.244.009.243.011.243.011.243.012.243.014.243.015.242.016.242.017.242.019.242.02.241.021.241.022.241.023.24.024.24.026.24.027.24.028.239.029.239.031.239.031.238.033.238.034.238.035.237.037.237.038.237.038.236.04.236.042.236.042.235.044.235.045.234.046.234.047.233.048.234.05.232.051.233.052.231.053.232.054.231.056.23.057.231.058.229.059.229.06.229.062.228.063.228.064.227.065.227.066.226.068.226.069.225.07.225.071.224.073.224.073.223.075.222.076.222.077.222.079.22.079.221.081.219.082.22.084.218.084.218.086.217.086.217.089.216.089.216.09.214.092.215.093.213.094.213.095.212.097.212.097.211.099.21.1.21.102.209.102.208.104.207.105.207.106.206.107.206.109.204.11.204.111.204.112.202.113.202.115.201.115.2.117.199.119.199.119.198.121.197.122.197.123.195.124.195.125.194.127.193.128.192.129.192.13.19.132.19.132.189.134.188.135.187.137.187.137.185.139.185.14.184.141.182.142.182.144.181.145.181.146.179.147.178.149.178.149.176.151.176.152.174.153.174.155.172.156.172.157.171.158.17.159.169.161.167.161.167.163.166.165.165.165.164.167.162.167.162.169.161.171.159.171.159.173.158.174.156.175.156.176.154.178.153.179.153.18.151.181.15.182.149.184.148.185.147.186.145.187.145.188.143.19.142.191.141.192.14.194.139.194.138.196.136.197.136.198.134.2.133.2.131.202.131.203.129.205.128.205.127.207.126.208.124.209.124.211.122.211.12.213.12.214.118.215.117.217.116.218.114.219.113.22.112.221.111.223.109.224.108.225.106.226.106.227.104.229.102.23.102.231.099.233.099.233.097.235.096.236.095.237.093.239.091.24.091.241.089.242.087.243.086.245.085.245.083.248.082.248.081.249.079.251.077.252.076.253.075.255.073.255.072.257.07.258.069.259.067.261.066.262.064.263.063.264.061.265.06.267.058.268.057.269.055.27.053.272.052.273.051.274.049.275.047.276.046.278.044.279.043.28.041.282.039.282.038.284.036.285.035.286.032.288.032.289.029.29.028.291.027.292.025.294.023.295.021.296.02.297.018.299.016.3.015.301.013.302.011.304.009.304.008.306.006.307.005.309.002.31.001.404-.001.404-.004.403-.007.402-.009.4-.012.4-.014.398-.017.398-.019.396-.022.395-.025.394-.027.392-.03.392-.032.39-.035.389-.038.388-.04.386-.042.385-.046.384-.047.383-.05.381-.053.38-.055.378-.058.378-.06.375-.063.375-.065.373-.068.371-.07.37-.073.369-.075.367-.078.365-.08.364-.083.363-.085.361-.088.359-.09.358-.092.356-.095.355-.098.353-.099.351-.103.35-.104.348-.107.346-.11.345-.112.343-.114.341-.117.339-.119.338-.122.336-.124.334-.126.332-.129.33-.131.329-.133.327-.136.324-.138.323-.141.321-.143.319-.145.317-.148.316-.15.313-.152.311-.155.309-.157.307-.159.153-.08.152-.082.152-.081.152-.082.15-.083.151-.084.149-.084.149-.084.149-.085.148-.086.148-.086.147-.087.147-.088.146-.088.145-.088.145-.089.144-.09.144-.09.144-.091.142-.092.143-.092.141-.092.141-.093.141-.094.14-.094.139-.095.139-.095.139-.096.137-.097.138-.097.136-.097.136-.099.136-.098.135-.1.134-.1.134-.1.133-.101.133-.102.132-.102.131-.102.131-.104.13-.103.13-.105.129-.105.128-.105.128-.106.128-.107.126-.107.126-.107.126-.109.125-.108.124-.11.124-.109.123-.111.122-.111.122-.111.121-.112.121-.113.12-.113.119-.114.119-.114.118-.115.117-.115.117-.116.116-.116.115-.117.115-.118.115-.118.113-.118.113-.12.112-.119.112-.12.111-.121.11-.121.11-.122.109-.122.109-.123.107-.124.107-.124.107-.124.106-.125.105-.126.104-.126.104-.126.103-.128.102-.127.102-.128.101-.129.1-.129.1-.13.099-.13.098-.131.098-.132.097-.132.096-.132.095-.133.095-.133.094-.134.094-.135.092-.135.092-.136.092-.136.09-.136.09-.137.089-.138.089-.138.087-.139.087-.139.087-.14.085-.14.085-.141.084-.141.084-.142.082-.142.082-.143.081-.143.081-.144.079-.144.079-.145.079-.146.077-.145.077-.147.076-.147.075-.147.075-.148.073-.148.137.274.139.274.141.273.143.272.144.271.146.269.148.269.15.268.152.267.154.266.155.265.158.264.159.262.162.262.163.26.165.259.167.258.169.257.171.255.173.255.175.253.177.251.178.251.181.249.183.247.185.247.187.245.189.243.191.242.193.241.195.239.197.238.199.236.201.235.203.233.206.231.207.23.21.229.212.226.213.225.216.224.218.222.221.22.222.218.225.216.226.215.229.213.232.211.233.209.235.208.238.206.24.203.242.202.245.2.247.198.249.196.251.194.253.192.128.095.128.095.129.094.129.093.13.094.131.092.131.092.131.092.133.091.132.091.134.09.134.089.134.089.135.088.136.088.136.088.137.086.138.087.138.085.138.085.14.085.14.084.14.083.141.083.142.082.142.082.143.081.143.081.144.08.145.079.145.079.146.078.146.078.147.077.148.077.148.076.149.075.149.074.151.075.15.073.152.073.151.072.153.072.153.071.154.07.154.07.155.069.156.069.156.068.157.067.157.067.158.066.159.065.16.065.16.064.16.064.161.062.162.063.163.061.163.061.164.06.164.06.165.059.166.058.166.057.167.057.168.057.168.055.169.055.169.054.17.054.171.053.172.052.172.051.172.051.174.05.174.049.174.049.176.048.176.047.176.047.178.046.178.045.178.044.18.044.18.043.18.042.181.042.182.04.183.04.183.04.184.038.185.038.185.037.186.037.186.035.188.035.187.034.189.034.189.033.19.031.191.032.191.03.192.03.193.028.193.028.194.028.195.026.195.026.196.025.197.024.197.024.199.022.198.022.2.021.2.02.201.02.201.018.203.018.203.017.203.016.205.016.205.014.205.014.207.013.207.012.208.012.208.01.21.01.21.009.21.008.212.007.212.006.213.006.213.005.214.003.215.003.216.002.216.002h.217l.327-.001.325-.003.324-.005.322-.006.321-.009.319-.011.317-.012.317-.014.314-.017.313-.018.312-.02.31-.022.309-.023.307-.026.306-.027.304-.029.303-.031.301-.033.299-.035.299-.036.297-.038.295-.04.294-.042.292-.043.291-.045.289-.047.288-.049.287-.05.285-.052.283-.054.283-.056.28-.057.279-.059.278-.06.276-.063.275-.064.274-.065.272-.067.27-.069.269-.07.268-.073.266-.073.265-.075.263-.077.262-.079.26-.08.259-.081.258-.083.256-.085.255-.086.253-.088.252-.089.25-.091.25-.093.247-.093.246-.096.245-.096.244-.099.242-.099.24-.102.239-.102.238-.104.237-.106.235-.107.233-.108.232-.11.231-.111.23-.113.228-.114.226-.115.225-.117.224-.118.223-.119.221-.121.22-.122.218-.124.217-.125.215-.126.215-.127.213-.129.211-.13.21-.131.209-.132.207-.134.206-.135.205-.137.203-.137.202-.139.201-.14.199-.141.198-.142.197-.144.195-.145.194-.146.192-.147.192-.148.189-.15.189-.15.187-.152.186-.153.185-.154.183-.155.182-.156.18-.157.179-.159.178-.159.177-.161.175-.161.174-.163.173-.164.171-.165.17-.165.169-.167.167-.168.166-.169.165-.17.164-.171.162-.172.161-.172.159-.174.159-.175.157-.176.155-.176.155-.178.153-.178.152-.18.15-.18.15-.181.148-.182.146-.183.146-.184.144-.185.143-.185.142-.187.14-.187.139-.188.138-.189.137-.19.135-.191.134-.191.133-.192.131-.193.131-.194.129-.194.128-.196.126-.196.125-.196.124-.198.123-.198.122-.199.12-.2.119-.2.118-.201.117-.202.115-.202.114-.203.113-.204.112-.205.111-.205.109-.205.108-.207.107-.207.105-.207.105-.208.103-.209.102-.21.101-.21.099-.21.099-.211.097-.212.096-.212.095-.213.093-.213.093-.214.091-.214.09-.215.089-.215.087-.216.087-.216.085-.217.084-.217.083-.218.081-.218.081-.218.079-.219.078-.22.077-.22.076-.22.075-.22.073-.221.073-.222.071-.222.07-.222.068-.222.068-.223.067-.223.065-.224.064-.224.063-.224.062-.224.061-.225.06-.225.058-.226.057-.225.057-.226.055-.226.054-.227.052-.226.052-.227.05-.227.05-.228.048-.227.047-.228.046-.228.045-.228.044-.228.043-.229.041-.228.041-.229.039-.229.038-.229.037-.229.036-.23.035-.229.034-.23.033-.229.031-.23.031-.23.029-.23.028-.23.028-.23.026-.23.025-.23.024-.23.023-.23.021-.23.021-.23.02-.23.018-.23.018-.231.016-.23.015-.23.015-.23.013-.23.012-.229.011-.23.01-.23.009-.23.008-.229.007-.23.005-.229.005-.229.004-.229.002-.229.002-.229.001-.229-.001-.23-.002-.231-.002-.231-.004-.23-.005-.231-.005-.231-.007-.232-.008-.231-.009-.231-.01-.231-.011-.232-.012-.231-.013-.232-.015-.231-.015-.231-.016-.232-.018-.231-.018-.232-.02-.231-.021-.232-.021-.231-.023-.232-.024-.231-.025-.231-.026-.232-.028-.231-.028-.231-.029-.231-.031-.231-.031-.23-.033-.231-.034-.231-.035-.23-.036-.23-.037-.231-.038-.23-.039-.229-.041-.23-.041-.23-.043-.229-.044-.229-.045-.229-.046-.229-.047-.228-.048-.229-.05-.228-.05-.227-.052-.228-.052-.227-.054-.227-.055-.227-.057-.227-.057-.226-.058-.226-.06-.225-.061-.226-.062-.225-.063-.224-.064-.225-.065-.223-.067-.224-.068-.223-.068-.223-.07-.223-.071-.222-.073-.222-.073-.221-.075-.221-.076-.22-.077-.22-.078-.22-.079-.219-.081-.219-.081-.218-.083-.218-.084-.217-.085-.217-.087-.217-.087-.216-.089-.215-.09-.215-.091-.214-.093-.214-.093-.213-.095-.213-.096-.212-.097-.212-.099-.211-.099-.21-.101-.21-.102-.209-.103-.209-.105-.208-.105-.208-.107-.206-.108-.207-.109-.205-.111-.205-.112-.204-.113-.204-.114-.203-.115-.202-.117-.202-.118-.2-.119-.201-.12-.199-.122-.199-.123-.198-.124-.197-.125-.196-.126-.196-.128-.195-.129-.194-.131-.194-.131-.192-.133-.192-.134-.191-.135-.19-.137-.19-.138-.188-.139-.188-.14-.187-.142-.186-.143-.185-.144-.184-.146-.184-.146-.182-.148-.182-.15-.181-.15-.179-.152-.179-.153-.178-.155-.177-.155-.176-.157-.176-.159-.174-.159-.173-.161-.172-.162-.172-.164-.17-.165-.169-.166-.169-.167-.167-.169-.166-.17-.165-.171-.165-.173-.163-.174-.162-.175-.161-.177-.16-.178-.159-.179-.158-.18-.156-.182-.156-.183-.154-.185-.154-.186-.152-.187-.151-.189-.15-.189-.149-.192-.148-.192-.146-.194-.146-.195-.144-.197-.143-.198-.142-.199-.14-.201-.14-.202-.138-.203-.137-.205-.135-.206-.135-.207-.133-.209-.132-.21-.13-.211-.13-.213-.128-.215-.127-.215-.125-.217-.124-.218-.123-.22-.121-.221-.121-.223-.118-.224-.118-.225-.116-.226-.115-.228-.113-.23-.112-.231-.111-.232-.109-.233-.108-.235-.106-.237-.105-.238-.104-.239-.102-.24-.1-.242-.1-.244-.097-.245-.097-.246-.094-.247-.094-.25-.091-.25-.091-.252-.088-.253-.088-.255-.085-.256-.085-.258-.082-.259-.081-.26-.08-.262-.078-.263-.076-.265-.075-.266-.073-.268-.072-.269-.07-.27-.068-.272-.067-.274-.065-.275-.063-.276-.062-.278-.06-.279-.059-.28-.057-.283-.055-.283-.053-.285-.052-.287-.05-.288-.049-.289-.046-.291-.045-.292-.043-.294-.042-.295-.039-.297-.038-.299-.036-.299-.035-.301-.032-.303-.031-.304-.029-.306-.027-.307-.025-.309-.024-.31-.022-.312-.019-.313-.018-.314-.017-.317-.014-.317-.012-.319-.011-.321-.008-.322-.007-.324-.005-.325-.003-.327-.001-.217.001Zm-4.45 22.837.249.004.248.007.245.009.244.012.243.015.24.018.24.02.237.022.236.026.234.028.232.03.231.033.228.036.228.038.225.041.224.043.222.046.22.049.219.05.217.054.215.055.213.059.212.06.209.063.209.066.206.068.204.07.203.073.201.074.199.078.198.08.195.082.194.084.192.086.19.089.188.091.187.094.184.096.183.097.181.101.179.102.178.104.175.107.174.109.171.111.17.113.168.116.166.117.164.12.163.121.16.124.158.126.157.128.155.13.152.131.151.134.149.136.147.138.145.14.143.142.141.144.139.146.137.147.136.15.133.152.131.153.13.155.127.157.125.159.124.161.121.163.119.165.118.166.115.168.113.17.111.171.11.174.107.175.105.177.103.178.101.181.099.182.097.183.095.185.093.187.09.189.089.19.087.192.084.193.082.195.081.197.078.198.076.2.074.201.072.203.069.204.068.206.065.207.063.209.062.21.058.211.057.213.055.215.052.216.051.217.048.219.046.22.043.221.042.223.039.224.037.225.035.227.033.228.03.229.029.231.026.231.023.234.022.234.019.235.017.237.015.238.013.239.01.24.008.241.006.243.003.244.001.244-.001.241-.003.24-.006.239-.008.238-.01.237-.013.236-.015.234-.017.233-.019.233-.022.231-.023.23-.026.228-.029.228-.03.226-.033.225-.035.224-.037.223-.039.221-.042.22-.043.219-.046.217-.048.216-.051.215-.052.213-.055.212-.057.211-.058.209-.062.208-.063.206-.065.205-.068.204-.069.202-.072.201-.074.199-.076.198-.078.196-.081.195-.082.193-.084.191-.087.19-.089.189-.09.187-.093.185-.095.184-.097.182-.099.18-.101.179-.103.177-.105.175-.107.174-.11.172-.111.17-.113.169-.115.167-.118.165-.119.163-.121.162-.124.159-.125.158-.127.156-.13.155-.131.152-.133.151-.136.148-.137.147-.139.145-.141.143-.143.141-.145.139-.147.137-.149.136-.151.133-.152.131-.155.129-.157.127-.158.126-.16.123-.163.121-.164.119-.166.117-.168.115-.17.112-.171.111-.174.108-.175.107-.178.104-.179.102-.181.099-.183.098-.184.095-.187.093-.188.091-.19.089-.192.086-.194.084-.195.082-.198.079-.199.078-.201.074-.203.073-.204.07-.206.068-.209.065-.209.063-.212.06-.213.058-.215.056-.217.053-.219.051-.22.048-.222.046-.224.043-.225.041-.228.038-.228.036-.231.033-.232.03-.234.028-.236.026-.237.022-.24.02-.24.018-.243.015-.244.012-.245.009-.248.007-.249.004-.25.002-.131-.001-.13-.001-.13-.003-.129-.004-.128-.004-.128-.006-.128-.006-.127-.008-.126-.008-.126-.01-.125-.01-.125-.012-.124-.012-.123-.014-.123-.014-.123-.015-.122-.017-.121-.017-.121-.018-.121-.019-.119-.02-.12-.021-.118-.021-.119-.023-.117-.024-.117-.024-.117-.025-.116-.027-.116-.027-.115-.027-.114-.029-.114-.03-.114-.03-.113-.032-.112-.032-.112-.033-.111-.034-.111-.034-.11-.036-.11-.036-.109-.037-.109-.038-.108-.038-.108-.04-.107-.04-.107-.041-.106-.042-.106-.042-.105-.044-.104-.044-.104-.044-.104-.046-.103-.046-.103-.047-.102-.048-.101-.048-.101-.049-.101-.05-.1-.05-.099-.052-.099-.052-.099-.052-.098-.053-.097-.054-.097-.055-.097-.055-.096-.056-.095-.056-.095-.058-.095-.057-.094-.059-.093-.059-.093-.06-.093-.06-.092-.061-.091-.061-.092-.062-.09-.063-.09-.063-.09-.064-.177-.13-.176-.131-.174-.134-.172-.136-.17-.138-.168-.14-.166-.143-.164-.144-.162-.146-.161-.148-.158-.15-.157-.151-.155-.154-.152-.155-.151-.156-.15-.158-.147-.16-.145-.162-.144-.162-.142-.165-.14-.165-.138-.167-.136-.168-.134-.17-.133-.17-.131-.172-.129-.173-.128-.174-.125-.175-.124-.176-.122-.177-.12-.177-.119-.179-.116-.179-.115-.18-.114-.181-.111-.181-.11-.182-.108-.183-.107-.183-.105-.183-.103-.184-.101-.184-.1-.185-.098-.185-.096-.185-.095-.185-.093-.185-.091-.186-.09-.185-.088-.186-.087-.185-.084-.185-.084-.186-.081-.185-.08-.185-.079-.184-.077-.184-.075-.184-.074-.184-.072-.182-.07-.183-.069-.182-.068-.181-.066-.181-.064-.18-.063-.179-.061-.179-.06-.177-.058-.177-.057-.176-.055-.175-.054-.174-.052-.172-.051-.172-.05-.171-.047-.169-.047-.168-.045-.167-.043-.166-.042-.164-.041-.163-.039-.161-.038-.16-.036-.158-.035-.156-.034-.155-.032-.154.032-.153.034-.155.035-.157.036-.158.038-.16.039-.162.041-.163.042-.164.043-.166.045-.168.047-.169.047-.17.05-.171.051-.172.052-.174.054-.174.055-.176.057-.177.058-.178.06-.178.061-.18.063-.18.064-.181.066-.182.068-.182.069-.183.07-.184.072-.184.074-.185.075-.185.077-.186.079-.186.08-.186.081-.186.084-.187.084-.187.087-.187.088-.187.09-.187.091-.187.093-.187.095-.187.096-.187.098-.186.1-.186.101-.186.103-.186.105-.185.107-.185.108-.184.11-.184.111-.183.114-.182.115-.182.116-.181.119-.181.12-.179.122-.179.124-.177.125-.177.128-.176.129-.175.131-.173.133-.173.134-.171.136-.17.138-.169.14-.167.142-.167.144-.164.145-.163.147-.162.15-.16.151-.159.152-.156.155-.156.157-.153.158-.151.161-.15.162-.148.164-.146.166-.144.168-.142.17-.14.172-.137.174-.136.176-.133.088-.066.089-.065.09-.065.09-.064.09-.063.092-.063.091-.062.092-.062.093-.061.093-.06.093-.06.094-.059.095-.059.095-.058.095-.057.096-.057.097-.056.097-.055.097-.055.098-.053.099-.054.099-.052.099-.052.1-.051.101-.051.101-.049.101-.05.102-.048.103-.047.103-.047.104-.046.104-.046.104-.044.105-.044.106-.043.106-.042.107-.042.107-.041.108-.04.108-.039.109-.038.109-.038.11-.036.11-.036.111-.035.111-.035.112-.033.112-.033.113-.031.114-.031.114-.03.114-.03.115-.028.116-.027.116-.027.117-.025.117-.025.117-.024.119-.023.118-.022.12-.021.119-.02.121-.02.121-.018.121-.017.122-.017.123-.015.123-.015.123-.013.124-.013.125-.012.125-.01.126-.01.126-.009.127-.007.128-.007.128-.006.128-.004.129-.004.13-.003.13-.001.131-.001.25.002Zm-64.792 8.172-.133.003-.127.003-.129.006-.122.007-.124.008-.126.01-.119.011-.117.012-.114.014-.117.015-.114.016-.107.017-.11.019-.112.02-.106.021-.103.021-.105.024-.099.023-.101.026-.103.027-.094.026-.095.028-.098.03-.096.031-.09.03-.088.031-.094.034-.089.034-.086.034-.084.035-.089.038-.087.038-.08.037-.081.038-.079.039-.084.043-.082.043-.073.04-.078.043-.079.046-.077.046-.074.045-.07.044-.077.051-.077.051-.07.049-.066.047-.072.052-.072.054-.07.054-.069.055-.068.055-.066.056-.069.059-.066.058-.062.056-.067.062-.063.06-.065.064-.067.068-.059.06-.06.064-.065.071-.059.066-.061.069-.062.074-.06.071-.057.07-.057.074-.057.074-.059.079-.059.08-.052.074-.055.079-.056.083-.054.084-.053.082-.053.087-.053.087-.05.085-.049.087-.052.093-.052.095-.045.086-.047.094-.049.099-.046.097-.046.098-.044.099-.045.103-.044.104-.041.101-.042.107-.041.106-.037.102-.04.112-.039.115-.036.107-.035.111-.036.118-.034.117-.033.118-.032.119-.03.117-.028.118-.029.124-.028.127-.027.128-.025.125-.023.126-.023.128-.021.131-.021.136-.019.128-.017.136-.017.137-.015.138-.014.14-.012.137-.011.143-.01.14-.008.142-.007.148-.005.145-.004.147-.002.148-.001.149.001.141.002.139.004.138.005.136.007.14.007.134.01.133.011.136.011.13.014.134.015.132.016.131.017.13.018.123.021.132.021.126.022.125.023.121.024.122.027.125.028.123.028.122.029.116.03.115.032.118.032.116.034.114.036.117.036.112.035.106.039.114.041.113.036.099.042.109.043.108.042.102.043.103.046.104.045.1.046.1.048.1.05.101.047.093.047.089.052.097.053.096.051.09.05.085.055.091.055.089.056.088.055.085.056.084.057.083.055.078.061.084.059.08.058.076.061.078.059.074.06.073.066.078.062.072.062.07.066.072.061.066.065.068.068.069.064.063.064.063.071.066.066.061.067.06.073.064.068.058.069.057.07.056.071.056.074.056.072.054.068.049.074.053.078.053.076.05.074.048.071.045.083.05.079.047.071.04.082.046.084.045.077.04.084.042.081.04.081.038.088.04.085.037.085.036.086.035.086.033.09.034.093.034.09.031.092.03.094.03.095.029.094.027.095.025.101.026.103.025.111.026.039.009.05.01.05.01.06.012.042.009.052.009.062.011.053.009.052.009.054.008.056.009.055.008.054.007.056.008.058.007.058.007.047.005.059.006.069.007.051.005.06.005.061.005.062.004.062.004.053.003.064.004.055.002.065.003.065.002.066.002.067.002.049.001H307.195l.097-.002.095-.003.086-.004.09-.004.087-.006.085-.007.088-.008.087-.009.084-.01.082-.01.079-.011.078-.012.081-.013.079-.014.079-.015.075-.016.074-.016.078-.017.07-.017.075-.019.077-.021.073-.02.07-.021.072-.022.069-.022.071-.023.073-.025.07-.026.067-.025.071-.027.07-.028.069-.028.073-.031.066-.029.068-.031.07-.032.068-.033.068-.033.066-.034.073-.038.069-.037.064-.035.068-.038.071-.041.071-.042.07-.043.066-.041.066-.042.07-.045.071-.047.07-.047.067-.047.072-.051.067-.048.067-.05.07-.052.068-.053.068-.053.072-.057.07-.057.069-.058.07-.058.068-.059.071-.062.07-.063.067-.06.068-.063.072-.067.068-.065.066-.065.07-.068.071-.072.068-.07.071-.073.069-.073.063-.067.068-.074.07-.077.069-.078.069-.078.065-.075.067-.079.066-.078.068-.083.068-.083.063-.079.069-.087.064-.083.061-.079.069-.091.065-.086.058-.08.067-.091.067-.094.064-.091.058-.082.062-.09.064-.095.06-.09.061-.093.062-.094.058-.09.058-.093.06-.095.06-.097.058-.095.055-.092.057-.097.057-.097.058-.099.055-.097.052-.093.055-.098.054-.098.051-.095.054-.1.052-.1.05-.096.052-.101.052-.101.047-.095.047-.094.049-.102.049-.101.045-.095.047-.1.471-1.019.471-.623-.015-.044-.032-.1-.034-.102-.036-.108-.038-.11-.037-.105-.038-.106-.041-.113-.042-.115-.041-.108-.043-.11-.045-.117-.045-.113-.046-.112-.049-.119-.048-.115-.048-.115-.05-.115-.054-.121-.051-.116-.053-.116-.054-.117-.052-.112-.058-.121-.057-.118-.059-.119-.06-.119-.06-.118-.059-.117-.059-.112-.063-.117-.064-.118-.065-.119-.065-.116-.063-.111-.068-.117-.069-.118-.065-.109-.07-.115-.071-.117-.067-.107-.07-.11-.074-.114-.073-.112-.07-.105-.071-.105-.077-.112-.076-.107-.073-.103-.077-.106-.075-.103-.075-.099-.078-.102-.077-.1-.081-.102-.079-.099-.076-.093-.079-.095-.081-.095-.079-.092-.08-.091-.082-.092-.08-.088-.079-.084-.085-.09-.083-.086-.077-.078-.083-.083-.084-.082-.082-.079-.083-.078-.079-.072-.083-.075-.083-.073-.082-.07-.082-.07-.085-.07-.084-.068-.079-.062-.081-.062-.085-.064-.086-.063-.077-.055-.081-.057-.085-.058-.084-.056-.084-.054-.079-.05-.081-.05-.084-.049-.082-.048-.08-.044-.081-.044-.086-.046-.084-.043-.077-.038-.084-.04-.086-.04-.079-.035-.081-.035-.084-.035-.101-.04-.033-.013-.04-.014-.036-.014-.046-.016-.04-.015-.038-.013-.05-.017-.042-.013-.039-.013-.049-.015-.04-.013-.044-.013-.041-.012-.042-.012-.045-.012-.046-.013-.044-.011-.044-.011-.047-.012-.046-.011-.046-.01-.04-.009-.048-.01-.048-.01-.041-.009-.05-.009-.052-.01-.051-.009-.042-.007-.045-.008-.053-.008-.045-.006-.045-.007-.057-.007-.048-.006-.048-.006-.057-.006-.05-.006-.041-.004-.051-.004-.061-.005-.053-.004-.054-.004-.054-.003-.056-.003-.056-.003-.048-.002-.058-.001-.058-.002-.06-.001-.06-.001h-.039l-.146.001Zm64.478 1.087h-.053l-.053.001-.051.002-.05.002-.058.002-.056.003-.047.003-.055.004-.053.004-.045.004-.05.004-.041.004-.051.006-.056.007-.047.006-.038.005-.045.006-.054.009-.043.006-.042.007-.043.008-.05.009-.04.008-.04.008-.048.01-.035.008-.046.011-.046.011-.034.008-.036.009-.044.012-.049.013-.04.011-.033.01-.041.012-.038.012-.039.012-.04.013-.035.012-.038.013-.043.015-.037.013-.036.014-.041.015-.035.014-.044.017-.031.013-.042.017-.041.018-.029.013-.033.014-.04.019-.044.02-.031.015-.039.019-.042.02-.031.015-.037.02-.045.023-.037.02-.036.019-.032.018-.036.02-.036.02-.038.023-.042.024-.034.021-.042.025-.041.026-.029.018-.033.021-.045.029-.042.028-.035.023-.037.025-.039.027-.033.024-.039.027-.038.028-.037.027-.03.022-.091.069-.074.058-.075.06-.08.066-.076.064-.081.07-.079.071-.074.066-.077.073-.082.078-.078.077-.08.079-.078.081-.077.081-.079.084-.08.088-.079.089-.078.089-.079.092-.077.093-.079.097-.078.096-.078.1-.077.1-.074.098-.077.104-.079.11-.076.107-.075.107-.074.108-.073.11-.076.114-.072.114-.072.113-.073.117-.074.122-.069.115-.068.116-.071.124-.07.123-.068.121-.067.124-.065.121-.065.125-.067.129-.062.122-.062.125-.065.132-.06.127-.06.126-.059.127-.059.132-.059.132-.056.127-.055.128-.053.125-.054.131-.055.136-.05.125-.049.124-.051.133-.049.131-.046.123-.045.126-.047.131-.044.128-.043.124-.041.123-.04.122-.041.126v.002l.036.114.04.121.042.124.042.121.043.123.047.132.045.124.045.121.048.127.052.133.048.123.049.122.055.133.053.129.054.125.054.125.055.125.059.131.058.127.058.124.06.126.06.125.064.13.061.122.061.118.068.131.065.123.062.115.067.121.07.124.068.12.068.117.069.116.07.116.071.115.072.115.072.113.072.111.075.112.072.106.074.108.074.106.074.102.079.108.076.102.075.098.076.099.076.095.076.094.079.095.079.093.078.091.074.084.078.087.08.086.08.085.079.082.075.076.076.076.08.077.081.076.076.071.075.068.077.066.082.071.075.063.077.062.077.061.073.056.079.059.092.067.023.017.038.026.04.028.039.026.036.025.034.023.035.022.044.029.04.025.029.018.041.025.041.024.034.021.042.024.038.022.035.019.035.02.032.017.036.02.044.023.045.023.03.015.037.018.042.021.031.014.039.018.044.021.031.014.041.018.037.016.033.014.042.017.039.015.035.014.035.014.041.015.044.016.037.013.034.012.047.016.035.012.039.012.04.013.037.011.05.015.033.009.04.011.04.011.044.011.044.012.034.008.046.01.047.011.043.009.04.009.04.008.048.009.042.008.042.007.051.008.043.007.054.008.045.007.038.005.056.007.048.005.051.006.05.005.041.004.053.004.054.004.054.004.056.003.047.003.058.002.059.002.043.001.061.002h.266l.151-.003.143-.004.141-.005.137-.007.14-.009.136-.009.129-.011.135-.013.128-.014.125-.015.122-.016.119-.017.122-.019.118-.02.116-.021.109-.021.109-.022.113-.025.106-.025.097-.023.104-.027.103-.028.096-.028.097-.029.093-.029.093-.031.091-.031.088-.031.084-.032.088-.034.086-.034.08-.033.077-.034.08-.036.083-.039.074-.036.069-.034.077-.039.075-.041.067-.037.066-.037.071-.042.067-.04.065-.041.066-.043.063-.041.065-.045.06-.042.062-.045.061-.045.058-.045.055-.044.058-.047.061-.05.056-.048.055-.049.054-.05.054-.05.053-.05.052-.052.054-.055.053-.055.05-.054.05-.054.051-.058.053-.062.048-.056.046-.057.049-.061.048-.063.051-.067.047-.064.045-.065.046-.066.045-.068.047-.071.048-.076.042-.067.042-.071.047-.081.043-.075.042-.077.042-.079.042-.082.042-.083.039-.081.04-.084.042-.092.038-.087.037-.087.039-.095.038-.094.037-.098.036-.095.034-.095.034-.1.035-.107.034-.103.031-.101.031-.107.032-.114.029-.106.028-.109.029-.121.027-.111.026-.12.026-.121.023-.118.023-.12.022-.127.022-.129.019-.121.019-.133.018-.13.016-.131.016-.139.014-.135.013-.138.011-.139.011-.141.009-.144.007-.145.007-.146.005-.149.003-.146.002-.153.001-.154-.001-.159-.002-.157-.003-.151-.006-.153-.006-.152-.008-.15-.009-.147-.011-.146-.011-.144-.013-.141-.015-.14-.016-.143-.016-.136-.018-.133-.02-.137-.019-.125-.022-.132-.023-.131-.023-.124-.024-.121-.026-.125-.027-.122-.026-.115-.03-.124-.029-.112-.029-.109-.033-.117-.031-.11-.032-.104-.034-.107-.035-.108-.035-.103-.034-.096-.036-.097-.038-.1-.038-.097-.04-.098-.038-.089-.039-.09-.042-.092-.039-.085-.04-.083-.043-.086-.043-.084-.041-.078-.042-.077-.045-.08-.046-.08-.042-.07-.044-.072-.049-.078-.046-.071-.046-.069-.046-.068-.045-.063-.046-.063-.05-.068-.052-.067-.047-.06-.047-.058-.048-.058-.052-.06-.052-.059-.047-.053-.051-.054-.056-.059-.052-.053-.053-.052-.053-.052-.051-.048-.055-.05-.059-.052-.053-.046-.058-.049-.058-.047-.056-.045-.058-.045-.062-.046-.062-.045-.06-.043-.062-.042-.063-.042-.066-.043-.062-.039-.067-.04-.071-.042-.07-.04-.067-.037-.072-.039-.073-.038-.072-.036-.075-.036-.078-.037-.08-.036-.078-.034-.08-.033-.086-.035-.088-.034-.079-.03-.088-.031-.096-.033-.093-.03-.088-.028-.093-.028-.101-.029-.103-.028-.099-.026-.101-.025-.111-.025-.108-.024-.105-.022-.114-.022-.115-.021-.114-.019-.117-.018-.124-.018-.126-.017-.126-.015-.123-.013-.13-.012-.138-.012-.132-.01-.135-.008-.142-.007-.145-.005-.144-.004-.142-.003h-.217Z"/><path fill="#fff" fill-opacity=".376" fill-rule="nonzero" d="M305.766 234.057c1.985.185 1.958.801 2.309 1.637.651 1.551-.487 3.585-2.283 3.711-.53.038-.417.008-.729.012-10.645.236-20.864 6.162-26.034 15.62 0 0-1.139 1.541-2.639 1.379-1.673-.18-2.901-2.161-2.143-3.793.227-.491.199-.377.355-.659 6.178-10.832 18.187-17.757 30.685-17.911.24-.001.239-.003.479.004zm-32.659 29.759c.459.028.608.079.875.185 3.439 1.356.973 7.209 3.104 13.63 0 0 .239 2.7-1.646 3.37-1.471.523-3.053-.461-3.594-2.151-1.316-4.149-2.277-8.654-1.481-12.855.242-1.274 1.035-2.213 2.742-2.179zm106.136-30.231c2.669.253 3.551 5.22-.156 5.355-.275.001-.275.001-.55.005-10.613.223-20.875 6.244-25.987 15.597 0 0-1.235 1.631-2.813 1.355-1.682-.294-2.791-2.143-1.891-3.926.827-1.513 1.066-1.862 1.649-2.734 6.398-9.582 17.663-15.499 29.266-15.656.241-.001.241-.003.482.004zm-35.945 29.02c2.052.093 3.233 2.405 1.836 5.27-2.49 5.109-5.732 9.872-9.256 14.375 0 0-2.058 1.67-3.66.535-2.827-2.002 1.725-6.716 4.415-10.93 1.157-1.813 2.275-3.655 3.288-5.556 0 0 .103-2.689 2.26-3.512.111-.042.395-.2 1.117-.182z"/><defs><linearGradient id="a" x2="1" gradientTransform="rotate(90 -56.842 77.33) scale(216.977)" gradientUnits="userSpaceOnUse"><stop offset="0" stop-color="#cce6ff"/><stop offset="1" stop-color="#1d98ff"/></linearGradient><linearGradient id="b" x2="1" gradientTransform="rotate(90 104.827 271.833) scale(289.428)" gradientUnits="userSpaceOnUse"><stop offset="0" stop-color="#fff"/><stop offset="1" stop-color="#d0e4fc"/></linearGradient><linearGradient id="d" x2="1" gradientTransform="rotate(-90 342.606 -57.837) scale(95.7268)" gradientUnits="userSpaceOnUse"><stop offset="0" stop-color="#2684fb"/><stop offset="1" stop-color="#7ad5fe"/></linearGradient></defs></svg>